<svg width="682" height="795" viewBox="0 0 682 795" fill="none" xmlns="http://www.w3.org/2000/svg">
<path d="M513.839 134.08C553.144 132.853 587.354 145.697 616.663 171.948C622.229 177.525 627.234 183.355 632.079 189.565C633.812 191.763 633.812 191.763 635.58 194.004C648.754 212.106 657.939 235.281 658.505 257.834C658.59 260.19 658.675 262.546 658.763 264.974C659.576 306.967 645.561 341.037 617.257 372.047C608.471 380.319 598.5 386.256 588.035 392.168C586.564 393.051 585.094 393.934 583.579 394.843C553.832 411.474 512.781 412.221 480.204 404.177C469.048 401.693 457.039 401.441 447.094 407.583C441.4 419.091 441.211 430.233 442.689 442.819C447.902 454.046 453.501 457.916 464.711 462.639C495.879 467.59 527.305 457.045 557.204 449.425C561.28 448.415 565.358 447.408 569.436 446.406C578.36 444.205 587.271 441.963 596.179 439.699C604.653 437.551 613.136 435.438 621.618 433.322C624.52 432.596 627.422 431.871 630.324 431.145C632.356 430.637 634.389 430.129 636.483 429.606C636.483 434.01 636.483 434.01 632.079 438.69C629.882 440.806 627.679 442.915 625.472 445.021C616.763 453.529 608.219 462.068 600.284 471.31C594.627 477.895 588.71 484.069 582.529 490.166C576.658 495.968 570.979 501.799 565.6 508.059C554.304 521.202 542.318 533.72 530.465 546.359C525.265 551.909 520.077 557.472 514.89 563.036C503 575.788 491.089 588.521 479.163 601.24C477.116 603.423 477.116 603.423 475.028 605.65C468 613.144 460.968 620.635 453.932 628.122C452.525 629.621 451.117 631.121 449.666 632.666C446.871 635.642 444.073 638.616 441.274 641.587C434.996 648.266 428.774 654.975 422.715 661.852C399.978 687.622 375.05 703.209 340.192 705.87C300.327 707.501 268.4 693.683 237.446 669.276C220.483 652.123 209.046 631.415 197.969 610.186C196.545 607.488 195.119 604.791 193.691 602.094C189.308 593.795 184.964 585.476 180.627 577.153C179.946 575.848 179.265 574.542 178.563 573.197C170.143 557.059 161.775 540.896 153.425 524.722C139.584 497.917 125.696 471.16 111.12 444.746C96.9405 419.014 83.6062 392.852 70.2579 366.683C61.926 350.355 53.5435 334.079 44.7831 317.976C27.3442 285.798 18.473 256.618 27.7117 219.983C37.2083 190.369 56.4118 165.571 84.0964 151.046C121.987 132.137 167.642 134.682 207.32 147.792C245.12 162.046 266.963 188.095 284.406 223.424C285.827 226.245 287.252 229.063 288.679 231.88C291.611 237.672 294.528 243.469 297.436 249.272C304.065 262.471 310.899 275.562 317.714 288.665C318.968 291.094 320.222 293.524 321.513 296.028C327.567 307.75 333.703 319.411 340.046 330.98C341.203 333.113 342.361 335.246 343.554 337.444C345.722 341.429 347.918 345.399 350.147 349.35C351.095 351.1 352.042 352.85 353.018 354.653C353.86 356.166 354.702 357.679 355.569 359.238C356.803 363.539 356.803 363.539 355.162 368.153C351.166 374.22 346.196 378.869 340.975 383.91C333.823 390.895 326.815 397.901 320.329 405.519C314.442 412.423 308.203 418.824 301.748 425.201C292.464 434.387 283.762 443.87 275.322 453.83C272.018 456.032 270.138 458.602 267.614 461.538C265.752 463.718 259.623 468.1 257.704 470.346C260.736 469.231 265.14 468.13 268.233 466.991C270.936 466.009 273.639 465.027 276.423 464.015C280.409 462.559 280.409 462.559 284.475 461.073C291.485 458.631 298.557 456.717 305.778 454.981C360.164 443.292 360.164 443.292 407.454 416.392C408.907 416.392 410.757 416.392 411.858 415.291C412.959 414.19 413.13 413.122 413.785 411.437C416.263 405.381 416.263 405.381 418.551 401.364C422.949 391.406 422.126 380.743 420.667 370.146C417.193 361.48 412.334 353.86 407.454 345.922C387.594 309.679 378.289 273.203 389.148 232.371C395.994 211.594 406.612 195.188 420.667 178.554C421.74 177.243 422.813 175.931 423.919 174.58C446.885 149.023 480.335 136.058 513.839 134.08Z" fill="url(#paint0_linear_643_16)"/>
<path d="M239.536 164.791C260.866 180.218 272.942 200.205 284.406 223.424C285.827 226.245 287.252 229.063 288.679 231.881C291.611 237.672 294.528 243.469 297.436 249.272C304.065 262.471 310.899 275.562 317.714 288.665C318.968 291.094 320.222 293.524 321.513 296.028C327.567 307.75 333.703 319.411 340.046 330.98C341.203 333.113 342.361 335.246 343.554 337.444C345.722 341.429 347.918 345.399 350.147 349.35C351.095 351.1 352.042 352.85 353.018 354.653C353.86 356.166 354.702 357.679 355.569 359.238C356.803 363.54 356.803 363.54 355.162 368.153C351.166 374.221 346.196 378.869 340.975 383.91C333.823 390.895 326.815 397.901 320.329 405.519C312.866 414.272 304.756 422.272 296.518 430.294C292.034 434.885 287.871 439.506 283.709 444.376C275.996 453.282 267.67 461.41 259.196 469.588C228.579 499.233 203.985 529.771 201.823 574.125C202.433 598.35 210.407 621.47 222.09 642.436C224.671 647.624 224.671 647.624 224.671 654.23C212.194 637.608 202.479 620.015 193.152 601.515C191.692 598.65 190.23 595.786 188.765 592.922C185.879 587.277 183 581.628 180.124 575.978C175.19 566.323 170.153 556.727 165.074 547.148C158.968 535.608 152.918 524.041 146.932 512.438C135.128 489.561 123.3 466.725 110.845 444.195C96.7447 418.653 83.5123 392.668 70.2568 366.68C61.9253 350.354 53.5431 334.078 44.7831 317.976C27.3442 285.799 18.473 256.618 27.7117 219.983C37.2083 190.369 56.4118 165.571 84.0964 151.046C131.59 127.345 196.124 134.755 239.536 164.791Z" fill="black"/>
<defs>
<linearGradient id="paint0_linear_643_16" x1="622.169" y1="173.049" x2="214.761" y2="664.14" gradientUnits="userSpaceOnUse">
<stop stop-color="#1E161F"/>
<stop offset="0.62" stop-color="#825E87"/>
<stop offset="1" stop-color="#A687AB"/>
</linearGradient>
</defs>
</svg>
